# File created by Blade
# Date/Time:  Tue Jan 27 20:12:12 2015
#---------------------------------------------------------
:version 1.10
:name HOM
:units
  mass 1.0
  length 1.000000
  angle deg
:documentation
     Acclaim Skeleton File
:root
   axis xyz
   order TX TY TZ RX RY RZ
   position 0.000000 0.000000 0.000000
   orientation 0 0 0
:bonedata
   begin
      id 1
      name Spine_dum
      direction 0.000000 1.000000 0.000000
      length 6.116652
      axis 0.0 0.0 0.0 xyz
   end
   begin
      id 2
      name LeftUpLeg_dum
      direction 1.000000 0.000000 0.000000
      length 4.711765
      axis 0.0 0.0 0.0 xyz
   end
   begin
      id 3
      name RightUpLeg_dum
      direction -1.000000 0.000000 0.000000
      length 4.711765
      axis 0.0 0.0 0.0 xyz
   end
   begin
      id 4
      name Spine
      direction 0.000000 1.000000 0.000000
      length 0.000000
      axis 0.0 0.0 0.0 xyz
      dof rx ry rz
   end
   begin
      id 5
      name Spine_dum1
      direction 0.000000 1.000000 0.000000
      length 15.225563
      axis 0.0 0.0 0.0 xyz
   end
   begin
      id 6
      name Spine_dum2
      direction 0.000000 1.000000 0.000000
      length 8.977654
      axis 0.0 0.0 0.0 xyz
   end
   begin
      id 7
      name Spine_dum3
      direction 0.000000 1.000000 0.000000
      length 8.977654
      axis 0.0 0.0 0.0 xyz
   end
   begin
      id 8
      name Head
      direction 0.000000 1.000000 0.000000
      length 4.527550
      axis 0.0 0.0 0.0 xyz
      dof rx ry rz
   end
   begin
      id 9
      name LeftShoulder
      direction 1.000000 0.000000 0.000000
      length 7.110130
      axis 0.0 0.0 -90.0 xyz
      dof rx ry rz
   end
   begin
      id 10
      name LeftArm
      direction 1.000000 0.000000 0.000000
      length 10.398341
      axis 0.0 0.0 -90.0 xyz
      dof rx ry rz
   end
   begin
      id 11
      name LeftForeArm
      direction 1.000000 0.000000 0.000000
      length 8.888997
      axis 0.0 0.0 -90.0 xyz
      dof ry rz rx
   end
   begin
      id 12
      name LeftHand
      direction 0.000000 0.000000 0.000000
      length 0.000000
      axis 0.0 0.0 -90.0 xyz
      dof rx ry rz
   end
   begin
      id 13
      name LeftHand_dum1
      direction 0.000000 0.000000 0.000000
      length 0.000000
      axis 0.0 0.0 -90.0 xyz
   end
   begin
      id 14
      name LeftHand_dum2
      direction 1.000000 0.000000 0.000000
      length 3.937000
      axis 0.0 0.0 -90.0 xyz
   end
   begin
      id 15
      name LeftHandThumb1
      direction 0.000000 0.000000 1.000000
      length 3.937000
      axis 0.0 0.0 -90.0 xyz
      dof rx rz ry
   end
   begin
      id 16
      name RightShoulder
      direction -1.000000 0.000000 0.000000
      length 7.110130
      axis 0.0 0.0 90.0 xyz
      dof rx ry rz
   end
   begin
      id 17
      name RightArm
      direction -1.000000 0.000000 0.000000
      length 10.398341
      axis 0.0 0.0 90.0 xyz
      dof rx ry rz
   end
   begin
      id 18
      name RightForeArm
      direction -1.000000 0.000000 0.000000
      length 8.888997
      axis 0.0 0.0 90.0 xyz
      dof ry rz rx
   end
   begin
      id 19
      name RightHand
      direction 0.000000 0.000000 0.000000
      length 0.000000
      axis 0.0 0.0 90.0 xyz
      dof rx ry rz
   end
   begin
      id 20
      name RightHand_dum1
      direction 0.000000 0.000000 0.000000
      length 0.000000
      axis 0.0 0.0 90.0 xyz
   end
   begin
      id 21
      name RightHand_dum2
      direction -1.000000 0.000000 0.000000
      length 3.937000
      axis 0.0 0.0 90.0 xyz
   end
   begin
      id 22
      name RightHandThumb1
      direction 0.000000 0.000000 1.000000
      length 3.937000
      axis 0.0 0.0 90.0 xyz
      dof rx rz ry
   end
   begin
      id 23
      name LeftUpLeg
      direction 0.000000 -1.000000 0.000000
      length 15.510451
      axis 0.0 0.0 0.0 xyz
      dof rx ry rz
   end
   begin
      id 24
      name LeftLeg
      direction 0.000000 -1.000000 0.000000
      length 14.858061
      axis 0.0 0.0 0.0 xyz
      dof rx ry rz
   end
   begin
      id 25
      name LeftFoot
      direction 0.000000 -0.258819 0.965926
      length 5.128852
      axis 15.0 0.0 0.0 xyz
      dof rx ry rz
   end
   begin
      id 26
      name LeftToeBase
      direction 0.000000 0.000000 1.000000
      length 2.952750
      axis 0.0 0.0 0.0 xyz
      dof rx ry rz
   end
   begin
      id 27
      name RightUpLeg
      direction 0.000000 -1.000000 0.000000
      length 15.510451
      axis 0.0 0.0 0.0 xyz
      dof rx ry rz
   end
   begin
      id 28
      name RightLeg
      direction 0.000000 -1.000000 0.000000
      length 14.858061
      axis 0.0 0.0 0.0 xyz
      dof rx ry rz
   end
   begin
      id 29
      name RightFoot
      direction 0.000000 -0.258819 0.965926
      length 5.128852
      axis 15.0 0.0 0.0 xyz
      dof rx ry rz
   end
   begin
      id 30
      name RightToeBase
      direction 0.000000 0.000000 1.000000
      length 2.952750
      axis 0.0 0.0 0.0 xyz
      dof rx ry rz
   end
:hierarchy
   begin
      root Spine_dum LeftUpLeg_dum RightUpLeg_dum
      Spine_dum Spine
      LeftUpLeg_dum LeftUpLeg
      RightUpLeg_dum RightUpLeg
      Spine Spine_dum1 Spine_dum2 Spine_dum3
      Spine_dum1 Head
      Spine_dum2 LeftShoulder
      Spine_dum3 RightShoulder
      LeftShoulder LeftArm
      LeftArm LeftForeArm
      LeftForeArm LeftHand
      LeftHand LeftHand_dum1 LeftHand_dum2
      LeftHand_dum1 LeftHandThumb1
      RightShoulder RightArm
      RightArm RightForeArm
      RightForeArm RightHand
      RightHand RightHand_dum1 RightHand_dum2
      RightHand_dum1 RightHandThumb1
      LeftUpLeg LeftLeg
      LeftLeg LeftFoot
      LeftFoot LeftToeBase
      RightUpLeg RightLeg
      RightLeg RightFoot
      RightFoot RightToeBase
   end

# File created by Blade
# Date/Time:  Tue Jan 27 20:12:02 2015
# Frame Rate: 120.000 fps
#------------------------------------------------------
:FULLY-SPECIFIED
:DEGREES
1009
root 8.579232 31.986468 -4.419367 7.129328 22.035763 4.474774
Spine 2.791847 -1.994293 -7.328343
Head 13.308360 -16.601551 2.822685
LeftShoulder -14.784518 -2.196139 29.187436
LeftArm -11.211386 -34.646144 -68.485268
LeftForeArm -8.928439 -0.000000 94.529561
LeftHand 18.478939 -0.000000 13.451088
LeftHandThumb1 -26.253704 0.000000 33.147579
RightShoulder -22.392745 -24.632514 -23.085688
RightArm 8.758422 -34.907841 89.343107
RightForeArm -24.162062 -0.000000 103.816527
RightHand 17.457803 0.000000 0.919095
RightHandThumb1 -24.326973 -0.000000 -32.862282
LeftUpLeg -0.432102 -14.951812 -10.827854
LeftLeg -4.303438 -0.000000 0.000000
LeftFoot -7.253441 8.223249 -13.632381
LeftToeBase 23.677820 -0.000000 -0.000000
RightUpLeg -9.466935 9.096014 1.356675
RightLeg 85.251161 -0.000000 -0.000000
RightFoot 26.599159 -6.277689 45.093873
RightToeBase 15.539446 -0.000000 -0.000000
1010
root 8.572219 31.993389 -4.409720 6.940807 21.436960 4.344712
Spine 2.817444 -1.479455 -7.317874
Head 13.601633 -16.545802 2.742669
LeftShoulder -14.826161 -2.079545 29.231979
LeftArm -11.305119 -34.764031 -68.463519
LeftForeArm -8.955011 -0.000000 94.469806
LeftHand 18.541930 -0.000000 13.686047
LeftHandThumb1 -26.253704 0.000000 33.147579
RightShoulder -22.395758 -24.665763 -23.044075
RightArm 8.848029 -34.948787 89.285391
RightForeArm -24.156955 0.000000 103.832344
RightHand 17.427627 -0.000000 0.891584
RightHandThumb1 -24.326973 -0.000000 -32.862282
LeftUpLeg -0.299581 -14.631772 -10.774919
LeftLeg -4.304964 -0.000000 0.000000
LeftFoot -7.376599 8.442796 -13.613035
LeftToeBase 23.619242 -0.000000 -0.000000
RightUpLeg -9.524366 8.614019 1.351699
RightLeg 85.103478 -0.000000 -0.000000
RightFoot 26.624431 -6.263487 45.147566
RightToeBase 15.571774 -0.000000 -0.000000
1011
root 8.564202 31.999542 -4.402226 6.778239 20.852557 4.202882
Spine 2.803842 -0.985551 -7.281129
Head 13.913061 -16.486341 2.644368
LeftShoulder -14.850442 -2.006866 29.295243
LeftArm -11.486549 -34.928802 -68.421437
LeftForeArm -8.958655 -0.000000 94.409720
LeftHand 18.580466 -0.000000 13.678628
LeftHandThumb1 -26.253704 0.000000 33.147579
RightShoulder -22.375883 -24.663660 -23.046072
RightArm 8.848574 -34.962932 89.281864
RightForeArm -24.149481 -0.000000 103.863952
RightHand 17.426053 0.000000 0.949920
RightHandThumb1 -24.326973 -0.000000 -32.862282
LeftUpLeg -0.189328 -14.446737 -10.709090
LeftLeg -4.328269 -0.000000 0.000000
LeftFoot -7.602073 8.832540 -13.789192
LeftToeBase 23.719754 -0.000000 -0.000000
RightUpLeg -9.607815 8.098404 1.362685
RightLeg 84.950482 -0.000000 -0.000000
RightFoot 26.554093 -6.222793 45.151355
RightToeBase 15.716502 -0.000000 -0.000000
1012
root 8.558645 32.006154 -4.395299 6.604391 20.198256 4.067350
Spine 2.793959 -0.459359 -7.244946
Head 14.245581 -16.388277 2.518381
LeftShoulder -14.919548 -1.909767 29.344680
LeftArm -11.680534 -34.977017 -68.317379
LeftForeArm -8.948296 -0.000000 94.320317
LeftHand 18.766198 -0.000000 13.706338
LeftHandThumb1 -26.253704 0.000000 33.147579
RightShoulder -22.291590 -24.618378 -23.103263
RightArm 8.796465 -34.965710 89.347768
RightForeArm -24.171249 0.000000 103.893591
RightHand 17.373836 0.000000 0.985153
RightHandThumb1 -24.326973 -0.000000 -32.862282
LeftUpLeg -0.083146 -14.122696 -10.655174
LeftLeg -4.315937 -0.000000 0.000000
LeftFoot -7.803046 9.106907 -13.940324
LeftToeBase 23.746680 -0.000000 -0.000000
RightUpLeg -9.681307 7.619507 1.348082
RightLeg 84.799404 -0.000000 -0.000000
RightFoot 26.507431 -6.173895 45.286034
RightToeBase 15.364823 -0.000000 -0.000000
1013
root 8.557282 32.014231 -4.378042 6.363288 19.556165 3.922294
Spine 2.831585 0.057497 -7.193116
Head 14.605839 -16.282929 2.396471
LeftShoulder -14.943963 -1.685981 29.366991
LeftArm -11.800013 -35.150072 -68.310324
LeftForeArm -8.960097 -0.000000 94.295026
LeftHand 18.728360 -0.000000 14.009003
LeftHandThumb1 -26.253704 0.000000 33.147579
RightShoulder -22.216429 -24.583835 -23.132120
RightArm 8.785423 -35.000066 89.338047
RightForeArm -24.134716 -0.000000 103.907003
RightHand 17.459681 -0.000000 0.863424
RightHandThumb1 -24.326973 -0.000000 -32.862282
LeftUpLeg 0.139397 -13.779259 -10.618682
LeftLeg -4.357495 -0.000000 0.000000
LeftFoot -7.971424 9.425248 -13.954204
LeftToeBase 23.617244 -0.000000 -0.000000
RightUpLeg -9.649180 7.079202 1.348907
RightLeg 84.597916 -0.000000 -0.000000
RightFoot 26.404285 -6.186530 45.452958
RightToeBase 15.589459 -0.000000 -0.000000
1014
root 8.546776 32.021685 -4.370681 6.214036 18.847994 3.786388
Spine 2.789217 0.672387 -7.177108
Head 14.950261 -16.219744 2.316682
LeftShoulder -15.033750 -1.501780 29.446735
LeftArm -11.825883 -35.221848 -68.364227
LeftForeArm -9.006010 -0.000000 94.185009
LeftHand 18.833812 -0.000000 13.939483
LeftHandThumb1 -26.253704 0.000000 33.147579
RightShoulder -22.181513 -24.487646 -23.151852
RightArm 8.669664 -35.039670 89.399205
RightForeArm -24.100782 -0.000000 103.947466
RightHand 17.453492 0.000000 0.846134
RightHandThumb1 -24.326973 -0.000000 -32.862282
LeftUpLeg 0.214528 -13.441848 -10.551800
LeftLeg -4.329695 -0.000000 0.000000
LeftFoot -8.183871 9.742674 -14.051712
LeftToeBase 23.747593 -0.000000 -0.000000
RightUpLeg -9.764714 6.586257 1.345563
RightLeg 84.450328 -0.000000 -0.000000
RightFoot 26.354282 -6.193457 45.447926
RightToeBase 15.432741 -0.000000 -0.000000
1015
root 8.539288 32.030051 -4.358287 6.005390 18.190528 3.626470
Spine 2.803560 1.253157 -7.110087
Head 15.311277 -16.153517 2.208213
LeftShoulder -15.028058 -1.414263 29.456578
LeftArm -12.058953 -35.252683 -68.190819
LeftForeArm -9.242474 0.000000 94.172572
LeftHand 18.860956 0.000000 14.306430
LeftHandThumb1 -26.253704 0.000000 33.147579
RightShoulder -22.198141 -24.611587 -23.058282
RightArm 8.845912 -35.055990 89.264202
RightForeArm -24.078361 -0.000000 103.992403
RightHand 17.454313 0.000000 0.854988
RightHandThumb1 -24.326973 -0.000000 -32.862282
LeftUpLeg 0.334000 -13.038430 -10.480520
LeftLeg -4.256774 -0.000000 0.000000
LeftFoot -8.409178 9.984096 -14.107885
LeftToeBase 23.687492 -0.000000 -0.000000
RightUpLeg -9.779385 6.027739 1.367789
RightLeg 84.256290 -0.000000 -0.000000
RightFoot 26.294899 -6.204626 45.597541
RightToeBase 15.361629 -0.000000 -0.000000
1016
root 8.535774 32.038400 -4.347301 5.786528 17.516927 3.481039
Spine 2.835734 1.792934 -7.025784
Head 15.688893 -16.024949 2.036883
LeftShoulder -15.122604 -1.256184 29.439326
LeftArm -12.172980 -35.373741 -68.127272
LeftForeArm -9.206320 -0.000000 94.113589
LeftHand 18.863587 -0.000000 14.336327
LeftHandThumb1 -26.253704 0.000000 33.147579
RightShoulder -22.124951 -24.745140 -23.011720
RightArm 9.023271 -35.030021 89.148022
RightForeArm -24.076445 -0.000000 104.048714
RightHand 17.471592 0.000000 0.855168
RightHandThumb1 -24.326973 -0.000000 -32.862282
LeftUpLeg 0.474683 -12.679123 -10.429304
LeftLeg -4.192432 -0.000000 0.000000
LeftFoot -8.643826 10.284262 -14.210571
LeftToeBase 23.561963 -0.000000 -0.000000
RightUpLeg -9.766930 5.451972 1.384141
RightLeg 83.992294 -0.000000 -0.000000
RightFoot 26.264740 -6.012465 45.710059
RightToeBase 18.217817 -0.000000 -0.000000
1017
root 8.530721 32.045570 -4.336512 5.578536 16.851868 3.351013
Spine 2.865521 2.361560 -6.959693
Head 16.074568 -15.935262 1.875073
LeftShoulder -15.227203 -1.205549 29.547794
LeftArm -12.395770 -35.357819 -68.124109
LeftForeArm -9.236301 -0.000000 94.018604
LeftHand 18.962399 -0.000000 14.410603
LeftHandThumb1 -26.253704 0.000000 33.147579
RightShoulder -22.042362 -24.630207 -23.091463
RightArm 8.840130 -35.022021 89.276037
RightForeArm -24.104781 -0.000000 104.084112
RightHand 17.556245 -0.000000 0.836326
RightHandThumb1 -24.326973 -0.000000 -32.862282
LeftUpLeg 0.607975 -12.315611 -10.383411
LeftLeg -4.121601 -0.000000 0.000000
LeftFoot -8.866748 10.530226 -14.334036
LeftToeBase 23.652396 -0.000000 -0.000000
RightUpLeg -9.776258 4.881093 1.384229
RightLeg 83.834812 -0.000000 -0.000000
RightFoot 26.154498 -6.208800 45.886400
RightToeBase 18.470836 -0.000000 -0.000000
1018
root 8.525241 32.054605 -4.328606 5.355628 16.178951 3.211146
Spine 2.923549 2.973796 -6.882772
Head 16.477786 -15.867736 1.741924
LeftShoulder -15.272147 -1.160151 29.566582
LeftArm -12.594633 -35.338712 -68.002775
LeftForeArm -9.353010 -0.000000 93.972906
LeftHand 18.926055 -0.000000 14.704149
LeftHandThumb1 -26.253704 0.000000 33.147579
RightShoulder -21.986366 -24.472643 -23.162479
RightArm 8.614768 -35.001743 89.420706
RightForeArm -24.063639 0.000000 104.100985
RightHand 17.435811 0.000000 0.489065
RightHandThumb1 -24.326973 -0.000000 -32.862282
LeftUpLeg 0.742147 -11.984372 -10.325712
LeftLeg -4.040753 -0.000000 0.000000
LeftFoot -9.105556 10.805358 -14.460672
LeftToeBase 23.621684 -0.000000 -0.000000
RightUpLeg -9.771445 4.303488 1.411174
RightLeg 83.651619 -0.000000 -0.000000
RightFoot 25.946027 -6.266252 45.883149
RightToeBase 19.455344 -0.000000 -0.000000
1019
root 8.521882 32.063879 -4.317775 5.126023 15.482018 3.068953
Spine 2.974969 3.561064 -6.794741
Head 16.926934 -15.750795 1.610419
LeftShoulder -15.356951 -1.025328 29.608819
LeftArm -12.756383 -35.383261 -67.993332
LeftForeArm -9.432812 -0.000000 93.910378
LeftHand 19.030016 -0.000000 14.851882
LeftHandThumb1 -26.253704 0.000000 33.147579
RightShoulder -21.932035 -24.621801 -23.089877
RightArm 8.827822 -35.001176 89.264301
RightForeArm -24.011336 -0.000000 104.130398
RightHand 17.181196 -0.000000 0.017836
RightHandThumb1 -24.326973 -0.000000 -32.862282
LeftUpLeg 0.908321 -11.666432 -10.264275
LeftLeg -3.980991 -0.000000 0.000000
LeftFoot -9.375821 11.152824 -14.545656
LeftToeBase 23.940750 -0.000000 -0.000000
RightUpLeg -9.754273 3.703404 1.407887
RightLeg 83.477016 -0.000000 -0.000000
RightFoot 25.918612 -6.383821 45.978837
RightToeBase 18.219343 -0.000000 -0.000000
1020
root 8.511159 32.072145 -4.306801 4.907259 14.803001 2.894407
Spine 3.001851 4.113637 -6.689872
Head 17.413732 -15.627383 1.489123
LeftShoulder -15.409887 -0.823290 29.666113
LeftArm -12.894340 -35.463629 -68.014720
LeftForeArm -9.489672 -0.000000 93.875295
LeftHand 19.077569 -0.000000 15.028815
LeftHandThumb1 -26.253704 0.000000 33.147579
RightShoulder -21.790510 -24.543797 -23.139889
RightArm 8.723781 -34.978746 89.309446
RightForeArm -24.021242 0.000000 104.142838
RightHand 17.132804 0.000000 -0.047259
RightHandThumb1 -24.326973 -0.000000 -32.862282
LeftUpLeg 1.021784 -11.224990 -10.178151
LeftLeg -3.855532 -0.000000 0.000000
LeftFoot -9.660234 11.386205 -14.647481
LeftToeBase 23.779883 -0.000000 -0.000000
RightUpLeg -9.742756 3.104334 1.479196
RightLeg 83.291338 -0.000000 -0.000000
RightFoot 25.763520 -6.459911 46.067962
RightToeBase 17.522169 -0.000000 -0.000000
1021
root 8.509556 32.080414 -4.290104 4.676840 14.090423 2.744505
Spine 3.030696 4.744848 -6.578614
Head 17.937143 -15.536658 1.324755
LeftShoulder -15.470184 -0.675984 29.715396
LeftArm -13.041995 -35.529925 -68.035097
LeftForeArm -9.538768 -0.000000 93.812488
LeftHand 19.065314 -0.000000 15.166003
LeftHandThumb1 -26.253704 0.000000 33.147579
RightShoulder -21.780014 -24.744960 -23.057404
RightArm 8.933927 -34.933041 89.185460
RightForeArm -24.085550 -0.000000 104.142793
RightHand 17.207658 -0.000000 0.088258
RightHandThumb1 -24.326973 -0.000000 -32.862282
LeftUpLeg 1.207189 -10.862873 -10.130496
LeftLeg -3.811574 -0.000000 0.000000
LeftFoot -9.719583 11.764525 -14.307249
LeftToeBase 22.972969 -0.000000 -0.000000
RightUpLeg -9.684433 2.603908 1.520068
RightLeg 83.077129 -0.000000 -0.000000
RightFoot 25.439643 -6.791330 46.809734
RightToeBase 18.495736 -0.000000 -0.000000
